<svg id="Layer_1" data-name="Layer 1" xmlns="http://www.w3.org/2000/svg" xmlns:xlink="http://www.w3.org/1999/xlink" viewBox="0 0 316.13 316.13"><defs><linearGradient id="New_Gradient_Swatch_2" x1="880.59" y1="677.29" x2="1038.6" y2="403.63" gradientUnits="userSpaceOnUse"><stop offset="0.01" stop-color="#503593"/><stop offset="0.15" stop-color="#8f4e9d"/><stop offset="0.29" stop-color="#ec1885"/><stop offset="0.41" stop-color="#ec178d"/><stop offset="0.52" stop-color="#eb0b8c"/><stop offset="0.64" stop-color="#ec236f"/><stop offset="0.8" stop-color="#ed3334"/><stop offset="1" stop-color="#fcc10f"/></linearGradient></defs><title>TLOGO-01</title><path d="M957.4,382.34a158.06,158.06,0,1,0,160.29,160.19C1118.87,453.92,1046,381.11,957.4,382.34Zm3.14,290.56h-.9a132.51,132.51,0,0,1,0-265h.9a132.56,132.56,0,0,1,124.21,86.25,2.14,2.14,0,0,1,.1,1.25c-3,13.44-22.81,8.47-40.41,6.2q-25.25-4-36.77-3.95c-18.75-.08-35,4.44-48,14A70.29,70.29,0,0,0,940,534.3a44.56,44.56,0,0,0-3.1,6.08c-8,18.48-12.07,52.81,6.41,58.76a2.3,2.3,0,0,0,1.22,0c16.78-4.17,3.11-20.53-1.71-28.66a2.27,2.27,0,0,1-.27-.71c-2.26-11.68-.91-21.45,3-29.42a41.91,41.91,0,0,1,14.1-15.85c14.45-10,35.54-13.57,55.89-11.65a2.22,2.22,0,0,1,1.93,2.72l-.32,1.34-4.76,23.44-11.62,57.19,0,.14c-11.17,40.73-7.14,66-27.86,74.51a2.39,2.39,0,0,1-.69.16Q966.42,672.91,960.54,672.9Zm49.14-9.42a2.22,2.22,0,0,1-3-2.48c6.87-35.43,17.22-83.86,25.19-120.62,1.88-8.69,3.62-16.72,5.17-23.78a2.21,2.21,0,0,1,2.37-1.73c15,1.49,36.11,1,47.28-4.89a2.22,2.22,0,0,1,3.21,1.49,132.68,132.68,0,0,1-80.21,152Z" transform="translate(-801.58 -382.32)" fill="url(#New_Gradient_Swatch_2)"/></svg>